<svg xmlns="http://www.w3.org/2000/svg" width="40" height="40" viewBox="0 0 40 40" fill="none">
  <path fill-rule="evenodd" clip-rule="evenodd" d="M15.6 15.3542C15.6 12.9494 17.5699 11 20 11C22.4301 11 24.4 12.9494 24.4 15.3542V22.4792C24.4 24.8839 22.4301 26.8333 20 26.8333C17.5699 26.8333 15.6 24.8839 15.6 22.4792V15.3542ZM23.2 18.9167V15.3542C23.2 13.6053 21.7673 12.1875 20 12.1875C18.2327 12.1875 16.8 13.6053 16.8 15.3542V18.9167H23.2Z" fill="#767676"/>
  <path d="M20.4 28.6196C23.5272 28.4159 26 25.8413 26 22.6951V18.125H24.8V22.6951C24.8 25.3184 22.651 27.4451 20 27.4451C17.349 27.4451 15.2 25.3184 15.2 22.6951V18.125H14V22.6951C14 25.8413 16.4728 28.4159 19.6 28.6196V29.2083H16.4V30H23.6V29.2083H20.4V28.6196Z" fill="#767676"/>
</svg>