<svg xmlns="http://www.w3.org/2000/svg" width="41" height="40" viewBox="0 0 41 40" fill="none">
  <path fill-rule="evenodd" clip-rule="evenodd" d="M25.852 14C25.852 16.9486 23.4617 19.3388 20.5132 19.3388C17.5646 19.3388 15.1743 16.9486 15.1743 14C15.1743 11.0514 17.5646 8.66117 20.5132 8.66117C23.4617 8.66117 25.852 11.0514 25.852 14ZM23.3215 20.4139C25.7893 19.3318 27.5132 16.8672 27.5132 14C27.5132 10.134 24.3792 7 20.5132 7C16.6472 7 13.5132 10.134 13.5132 14C13.5132 16.9162 15.2964 19.4159 17.8319 20.4681C14.6817 21.1464 12.2856 22.9034 10.5397 24.9623C8.31329 27.5878 7.12127 30.7238 6.69869 32.8366L6.5 33.8301H34.4936L34.3324 32.863C33.98 30.7484 32.8912 27.6068 30.7471 24.9749C29.0164 22.8505 26.5868 21.0494 23.3215 20.4139ZM32.4916 32.1689H8.56949C9.08398 30.3553 10.121 28.0245 11.8066 26.0367C13.8028 23.6827 16.6852 21.8301 20.7131 21.8301C24.7382 21.8301 27.5493 23.6797 29.4592 26.0241C31.0817 28.0158 32.0408 30.3542 32.4916 32.1689Z" fill="#272727"/>
</svg>